<mxfile host="Electron" modified="2024-02-25T08:35:12.463Z" agent="Mozilla/5.0 (Windows NT 10.0; Win64; x64) AppleWebKit/537.36 (KHTML, like Gecko) draw.io/23.1.5 Chrome/120.0.6099.109 Electron/28.1.0 Safari/537.36" etag="39yIX8_XsoIpUiepET8G" version="23.1.5" type="device">
  <diagram name="Page-1" id="hwJGP-7LeXRfqxVs9OOH">
    <mxGraphModel dx="512" dy="445" grid="1" gridSize="10" guides="1" tooltips="1" connect="1" arrows="1" fold="1" page="1" pageScale="1" pageWidth="827" pageHeight="1169" math="0" shadow="0">
      <root>
        <mxCell id="0" />
        <mxCell id="1" parent="0" />
        <mxCell id="BLTb10yyDf7amz6NVsnA-10" value="" style="group" vertex="1" connectable="0" parent="1">
          <mxGeometry x="70" y="280" width="373.5" height="130" as="geometry" />
        </mxCell>
        <mxCell id="0I1OTFyVBPVYsNICkLVj-6" style="edgeStyle=orthogonalEdgeStyle;rounded=0;orthogonalLoop=1;jettySize=auto;html=1;strokeWidth=2;endArrow=blockThin;endFill=1;exitX=1;exitY=0.5;exitDx=0;exitDy=0;" parent="BLTb10yyDf7amz6NVsnA-10" source="BLTb10yyDf7amz6NVsnA-1" edge="1">
          <mxGeometry relative="1" as="geometry">
            <mxPoint x="300" y="29.75" as="targetPoint" />
            <mxPoint x="250" y="29.75" as="sourcePoint" />
          </mxGeometry>
        </mxCell>
        <mxCell id="0I1OTFyVBPVYsNICkLVj-7" style="edgeStyle=orthogonalEdgeStyle;rounded=0;orthogonalLoop=1;jettySize=auto;html=1;startArrow=blockThin;startFill=1;endArrow=none;endFill=0;strokeWidth=2;exitX=0;exitY=0.5;exitDx=0;exitDy=0;" parent="BLTb10yyDf7amz6NVsnA-10" source="BLTb10yyDf7amz6NVsnA-1" edge="1">
          <mxGeometry relative="1" as="geometry">
            <mxPoint x="70" y="29.80000000000001" as="targetPoint" />
            <mxPoint x="130" y="29.80000000000001" as="sourcePoint" />
          </mxGeometry>
        </mxCell>
        <mxCell id="0I1OTFyVBPVYsNICkLVj-8" value="&lt;i&gt;j&amp;nbsp;&lt;/i&gt;enters, F&lt;sub&gt;j0&lt;/sub&gt;" style="text;html=1;align=center;verticalAlign=middle;whiteSpace=wrap;rounded=0;fontFamily=IBM Plex sans;fillColor=none;fontColor=#0F62FE;labelBackgroundColor=none;" parent="BLTb10yyDf7amz6NVsnA-10" vertex="1">
          <mxGeometry y="15" width="70" height="30" as="geometry" />
        </mxCell>
        <mxCell id="BLTb10yyDf7amz6NVsnA-1" value="System Volume, V" style="rounded=1;whiteSpace=wrap;html=1;align=center;verticalAlign=middle;fontFamily=IBM Plex sans;fontSize=12;fontColor=#FFFFFF;labelBackgroundColor=none;fillColor=#0F62FE;gradientColor=none;strokeWidth=2;strokeColor=none;" vertex="1" parent="BLTb10yyDf7amz6NVsnA-10">
          <mxGeometry x="130" width="120" height="60" as="geometry" />
        </mxCell>
        <mxCell id="BLTb10yyDf7amz6NVsnA-4" value="&lt;i&gt;j&lt;/i&gt; leaves, F&lt;sub&gt;j&lt;/sub&gt;" style="text;html=1;align=center;verticalAlign=middle;whiteSpace=wrap;rounded=0;fontFamily=IBM Plex sans;fontSize=12;fontColor=#0F62FE;labelBackgroundColor=none;" vertex="1" parent="BLTb10yyDf7amz6NVsnA-10">
          <mxGeometry x="313.5" y="15" width="60" height="30" as="geometry" />
        </mxCell>
        <mxCell id="BLTb10yyDf7amz6NVsnA-6" value="&lt;i&gt;j&lt;/i&gt; accumulates within the system, N&lt;sub&gt;j&lt;/sub&gt;" style="text;html=1;align=center;verticalAlign=middle;whiteSpace=wrap;rounded=0;fontFamily=IBM Plex sans;fillColor=none;fontColor=#0F62FE;labelBackgroundColor=none;" vertex="1" parent="BLTb10yyDf7amz6NVsnA-10">
          <mxGeometry x="60" y="80" width="90" height="50" as="geometry" />
        </mxCell>
        <mxCell id="BLTb10yyDf7amz6NVsnA-7" value="&lt;i&gt;j&lt;/i&gt;&amp;nbsp;is generated/ decomposed within the system, G&lt;sub&gt;j&lt;/sub&gt;" style="text;html=1;align=center;verticalAlign=middle;whiteSpace=wrap;rounded=0;fontFamily=IBM Plex sans;fillColor=none;fontColor=#0F62FE;labelBackgroundColor=none;" vertex="1" parent="BLTb10yyDf7amz6NVsnA-10">
          <mxGeometry x="230" y="80" width="120" height="50" as="geometry" />
        </mxCell>
        <mxCell id="BLTb10yyDf7amz6NVsnA-8" value="" style="curved=1;endArrow=classic;html=1;rounded=0;strokeColor=default;strokeWidth=2;align=center;verticalAlign=middle;fontFamily=IBM Plex sans;fontSize=12;fontColor=#388ECC;labelBackgroundColor=none;edgeStyle=orthogonalEdgeStyle;exitX=1;exitY=0.25;exitDx=0;exitDy=0;" edge="1" parent="BLTb10yyDf7amz6NVsnA-10">
          <mxGeometry width="50" height="50" relative="1" as="geometry">
            <mxPoint x="150" y="100" as="sourcePoint" />
            <mxPoint x="170" y="40" as="targetPoint" />
            <Array as="points">
              <mxPoint x="170" y="100" />
            </Array>
          </mxGeometry>
        </mxCell>
        <mxCell id="BLTb10yyDf7amz6NVsnA-9" value="" style="curved=1;endArrow=classic;html=1;rounded=0;strokeColor=default;strokeWidth=2;align=center;verticalAlign=middle;fontFamily=IBM Plex sans;fontSize=12;fontColor=#388ECC;labelBackgroundColor=none;edgeStyle=orthogonalEdgeStyle;" edge="1" parent="BLTb10yyDf7amz6NVsnA-10">
          <mxGeometry width="50" height="50" relative="1" as="geometry">
            <mxPoint x="230" y="100" as="sourcePoint" />
            <mxPoint x="195" y="50.01999999999998" as="targetPoint" />
            <Array as="points">
              <mxPoint x="195" y="100.01999999999998" />
              <mxPoint x="145" y="50.01999999999998" />
            </Array>
          </mxGeometry>
        </mxCell>
      </root>
    </mxGraphModel>
  </diagram>
</mxfile>
